HIERARCHY
ROOT Hips
{
	OFFSET 0.00000 0.00000 0.00000
	CHANNELS 6 Xposition Yposition Zposition Yrotation Zrotation Xrotation 
	JOINT Lumbar
	{
		OFFSET 0 0 0
		CHANNELS 3 Zrotation Xrotation Yrotation
		JOINT Neck
		{
			OFFSET 0.00 0.2701 0.00
			CHANNELS 3 Zrotation Xrotation Yrotation
			End Site
			{
				OFFSET 0.00 0.1379 0.00
			}
		}
		JOINT RightShoulder
		{
			OFFSET 0.0119 0.2289 0.1181
			CHANNELS 3 Zrotation Xrotation Yrotation
			JOINT RightElbow
			{
				OFFSET 0.00 -0.1475 0.00
				CHANNELS 2 Zrotation Yrotation
				JOINT RightWrist
				{
					OFFSET 0.00 -0.1605 0.00
					CHANNELS 2 Zrotation Xrotation
					End Site
					{
						OFFSET 0.0040 -0.1068 0.0006
					}
				}
			}
		}
		JOINT LeftShoulder
		{
			OFFSET 0.0119 0.2289 -0.1181
			CHANNELS 3 Zrotation Xrotation Yrotation
			JOINT LeftElbow
			{
				OFFSET 0.00 -0.1475 0.00
				CHANNELS 2 Zrotation Yrotation
				JOINT LeftWrist
				{
					OFFSET 0.00 -0.1605 0.00
					CHANNELS 2 Zrotation Xrotation
					End Site
					{
						OFFSET 0.0040 -0.1068 -0.0006
					}
				}
			}
		}
	}
	JOINT RightHip
	{
		OFFSET 0.0316 -0.0424 0.0458
		CHANNELS 3 Zrotation Xrotation Yrotation
		JOINT RightKnee
		{
			OFFSET 0.00 -0.2438 0.00
			CHANNELS 1 Zrotation
			JOINT RightAnkle
			{
				OFFSET 0.00 -0.2449 0.00
				CHANNELS 3 Zrotation Xrotation Yrotation
				End Site
				{
					OFFSET 0.1237 -0.0542 0.0051
				}
			}
		}
	}
	JOINT LeftHip
	{
		OFFSET 0.0316 -0.0424 -0.0458
		CHANNELS 3 Zrotation Xrotation Yrotation
		JOINT LeftKnee
		{
			OFFSET 0.00 -0.2438 0.00
			CHANNELS 1 Zrotation
			JOINT LeftAnkle
			{
				OFFSET 0.00 -0.2449 0.00
				CHANNELS 3 Zrotation Xrotation Yrotation
				End Site
				{
					OFFSET 0.1237 -0.0542 -0.0051
				}
			}
		}
	}
}
MOTION
Frames: 28
Frame Time: 0.02
-1.22044 0.50262 -0.68278 114.66009 0 6.76717 -58.06927 -0.15852 28.50056 -66.57756 38.96075 -52.98629 139.48261 16.2147 55.63419 25.91189 86.24883 5.81567 0.86934 -28.12232 131.55128 79.48427 6.45992 -74.0315 -3.38874 4.10139 30.42914 1.31862 22.71779 -51.13376 2.76532 -3.09991 -4.97433 12.37629 7.2891 40.42216 -39.08013 7.13279 4.82829 6.99339
-1.22066 0.50307 -0.68312 114.99018 0 6.68823 -58.06927 -0.2885 28.65297 -66.57756 38.96076 -53.60624 139.08953 16.2147 55.63418 25.73048 86.33287 5.71219 0.8266 -27.6748 131.52651 78.95674 6.47242 -74.27673 -3.40137 4.07536 30.30374 1.20389 22.42731 -50.97627 2.71604 -3.10817 -5.03489 12.37157 7.2769 40.2588 -38.91183 7.06094 4.74902 6.86466
-1.22092 0.50371 -0.68354 115.31435 0 6.6294 -58.06927 -0.41054 28.76273 -66.57757 38.96076 -54.27275 138.5383 16.2147 55.63417 25.85773 86.33961 5.76935 0.77314 -27.17087 131.49497 78.35789 6.4767 -74.58646 -3.41202 4.03809 30.13994 1.06237 22.14439 -50.75965 2.64535 -3.11778 -5.10235 12.3091 7.21158 40.1165 -38.6276 6.93921 4.64605 6.71365
-1.22117 0.50426 -0.68391 115.63961 0 6.55974 -58.06927 -0.53384 28.88921 -66.57756 38.96075 -54.90297 138.05674 16.2147 55.63416 25.84446 86.38575 5.75691 0.7252 -26.70668 131.46903 77.81305 6.48497 -74.85701 -3.42248 4.00704 29.99375 0.93654 21.86306 -50.57089 2.58618 -3.12751 -5.16852 12.27442 7.17375 39.96681 -38.40123 6.84438 4.55519 6.57207
-1.2214 0.50485 -0.68432 115.9766 0 6.49513 -58.06927 -0.66218 29.02876 -66.57757 38.96078 -55.59701 137.57374 16.2147 55.63414 25.83196 86.4232 5.73256 0.67184 -26.18217 131.43639 77.18545 6.49193 -75.16747 -3.43715 3.97132 29.84585 0.79595 21.55704 -50.37711 2.51934 -3.13451 -5.22866 12.23453 7.12434 39.80688 -38.15418 6.73263 4.45776 6.43034
-1.22168 0.50539 -0.68467 116.28535 0 6.42572 -58.06927 -0.78005 29.13032 -66.57756 38.96074 -56.16895 137.06112 16.2147 55.63414 25.89186 86.45672 5.77023 0.62829 -25.76997 131.41462 76.70996 6.49962 -75.41104 -3.44278 3.94252 29.69333 0.6797 21.30559 -50.18083 2.46367 -3.14734 -5.30191 12.19165 7.0855 39.67352 -37.9232 6.64421 4.36906 6.2855
-1.22206 0.50575 -0.68486 116.52349 0 6.33651 -58.06926 -0.8706 29.13653 -66.57747 38.96048 -56.39493 136.49543 16.2147 55.63414 26.06872 86.49923 5.93973 0.61385 -25.68489 131.42436 76.67352 6.51306 -75.45113 -3.4235 3.93716 29.53093 0.63737 21.20292 -49.98248 2.44096 -3.17634 -5.41472 12.14996 7.08829 39.61023 -37.75282 6.62876 4.30632 6.12918
-1.22249 0.50606 -0.68498 116.73168 0 6.24232 -58.06926 -0.95165 29.10586 -66.57736 38.96017 -56.49565 135.90869 16.2147 55.63414 26.30887 86.53895 6.16564 0.6101 -25.71457 131.44491 76.79143 6.52726 -75.42262 -3.39536 3.93888 29.36643 0.62045 21.15545 -49.78531 2.43068 -3.21104 -5.53942 12.10786 7.10328 39.57268 -37.60449 6.63894 4.25402 5.97246
-1.22291 0.50638 -0.68513 116.94912 0 6.15181 -58.06925 -1.03795 29.09237 -66.57726 38.9599 -56.65251 135.33944 16.2147 55.63414 26.52515 86.57805 6.36563 0.60231 -25.68949 131.45986 76.83607 6.54007 -75.42744 -3.37159 3.93635 29.20735 0.59174 21.08321 -49.59414 2.41685 -3.24286 -5.65511 12.06879 7.11268 39.52242 -37.4538 6.6397 4.19958 5.82162
-1.22331 0.50676 -0.68531 117.18492 0 6.05615 -58.06925 -1.11991 29.0757 -66.57714 38.95955 -56.81572 134.73081 16.2147 55.63414 26.73253 86.62266 6.57305 0.59084 -25.67247 131.47689 76.89037 6.55701 -75.42464 -3.34616 3.93778 29.02835 0.56298 21.00968 -49.37394 2.39383 -3.27602 -5.78603 12.0158 7.12049 39.47754 -37.26709 6.62967 4.13323 5.64562
-1.22375 0.507 -0.68541 117.37532 0 5.96957 -58.06924 -1.20881 29.0574 -66.57707 38.95935 -56.93359 134.20157 16.2147 55.63414 26.96826 86.65603 6.77556 0.58949 -25.66784 131.49305 76.96358 6.56561 -75.42152 -3.32226 3.9328 28.89047 0.54088 20.95203 -49.21449 2.39264 -3.30763 -5.8883 11.99237 7.13514 39.42681 -37.16175 6.64846 4.09457 5.52262
-1.22424 0.50688 -0.6853 117.44871 0 5.91095 -58.06925 -1.31854 29.04414 -66.57714 38.95955 -56.97204 133.89526 16.2147 55.63411 27.276 86.65943 6.95643 0.6151 -25.65931 131.49757 77.03994 6.55135 -75.4259 -3.30372 3.90869 28.87021 0.52927 20.92288 -49.22934 2.45358 -3.33441 -5.90524 12.05167 7.16628 39.3572 -37.27959 6.74402 4.12921 5.54322
-1.22477 0.50663 -0.6851 117.47757 0 5.86123 -58.06925 -1.43542 29.03079 -66.57726 38.9599 -56.96647 133.67033 16.21469 55.63406 27.60721 86.65181 7.1288 0.65003 -25.6613 131.50238 77.13339 6.52873 -75.4334 -3.28724 3.87807 28.89094 0.52371 20.90768 -49.30429 2.53533 -3.35927 -5.89337 12.14096 7.20392 39.27962 -37.4784 6.86726 4.19161 5.618
-1.22528 0.50645 -0.68494 117.52578 0 5.80625 -58.06926 -1.54999 29.01714 -66.57736 38.96017 -56.97046 133.41034 16.21469 55.63402 27.91957 86.64944 7.30015 0.67993 -25.66552 131.51105 77.22554 6.50961 -75.44489 -3.27053 3.85011 28.89075 0.5169 20.88783 -49.34756 2.60433 -3.38448 -5.89699 12.21598 7.23863 39.20382 -37.63823 6.9759 4.24175 5.66976
-1.22579 0.50623 -0.68478 117.57546 0 5.75621 -58.06926 -1.66171 29.0029 -66.57747 38.96048 -57.01281 133.14278 16.21468 55.63398 28.26728 86.64624 7.49311 0.71448 -25.64471 131.50211 77.2918 6.49138 -75.43193 -3.25052 3.82297 28.90013 0.50554 20.86456 -49.40935 2.68725 -3.41213 -5.89146 12.2931 7.27413 39.13851 -37.80807 7.09416 4.29061 5.71405
-1.22632 0.50605 -0.6846 117.61343 0 5.69807 -58.06927 -1.77933 28.99126 -66.57756 38.96075 -56.96818 132.90884 16.21468 55.63395 28.54808 86.64176 7.63963 0.74028 -25.67626 131.53118 77.41897 6.46981 -75.47062 -3.23799 3.79331 28.89935 0.50363 20.84875 -49.44672 2.74644 -3.43412 -5.89727 12.37368 7.30873 39.04686 -37.9759 7.19836 4.34875 5.78765
-1.22689 0.50602 -0.6844 117.61656 0 5.61541 -58.06927 -1.92876 28.97917 -66.5776 38.96085 -56.68011 132.76303 16.21468 55.63394 28.62132 86.64002 7.64881 0.74921 -25.85679 131.65287 77.66491 6.43675 -75.65922 -3.2458 3.75124 28.86069 0.53612 20.8697 -49.40345 2.73103 -3.44119 -5.94791 12.45032 7.345 38.90418 -38.11953 7.2591 4.42438 5.92135
-1.22748 0.50603 -0.68419 117.61183 0 5.52441 -58.06927 -2.08163 28.97128 -66.57762 38.9609 -56.30954 132.64532 16.21468 55.63394 28.62986 86.63658 7.61385 0.74707 -26.08822 131.81479 77.97744 6.40147 -75.89856 -3.26106 3.70808 28.81047 0.57609 20.89403 -49.33348 2.69168 -3.44255 -6.00983 12.53044 7.37907 38.73185 -38.2581 7.30424 4.50856 6.08397
-1.22806 0.50602 -0.68398 117.61999 0 5.43711 -58.06927 -2.22042 28.96673 -66.57764 38.96098 -55.98621 132.50515 16.21468 55.63394 28.67806 86.63173 7.6055 0.74381 -26.29061 131.96659 78.29068 6.36999 -76.10966 -3.27285 3.67008 28.7653 0.6059 20.90337 -49.27448 2.66583 -3.44631 -6.06217 12.61311 7.41026 38.55954 -38.39802 7.35497 4.58966 6.23846
-1.22865 0.506 -0.68377 117.58832 0 5.35009 -58.06927 -2.40844 28.94016 -66.57767 38.96106 -55.61899 132.40955 16.21468 55.63394 28.68131 86.63623 7.56717 0.76728 -26.51648 132.08496 78.48129 6.32626 -76.34252 -3.28516 3.61243 28.72201 0.6639 20.96891 -49.22161 2.62968 -3.45081 -6.13183 12.67979 7.45781 38.44221 -38.54445 7.41291 4.6684 6.37417
-1.22922 0.50601 -0.68355 117.63694 0 5.26088 -58.06927 -2.49949 28.96025 -66.57769 38.96111 -55.32562 132.22571 16.21468 55.63395 28.76564 86.62033 7.58349 0.73179 -26.70773 132.28123 78.93358 6.30784 -76.54232 -3.29802 3.59521 28.67207 0.6656 20.9194 -49.14998 2.60898 -3.45248 -6.16904 12.77972 7.47099 38.20537 -38.6755 7.45188 4.75364 6.55452
-1.22979 0.50607 -0.68326 117.92231 0 5.16379 -58.06927 -2.2792 29.10971 -66.57767 38.96106 -55.24398 131.8014 16.21468 55.63398 29.06061 86.55471 7.73767 0.54151 -26.77122 132.69342 80.17135 6.35815 -76.63639 -3.31141 3.69251 28.60147 0.50374 20.53995 -49.02337 2.63735 -3.44755 -6.10983 12.97471 7.38683 37.62945 -38.76072 7.4412 4.85511 6.85526
-1.23034 0.50615 -0.68296 118.28711 0 5.06567 -58.06927 -1.96832 29.30551 -66.57764 38.96097 -55.24178 131.28633 16.21469 55.63403 29.44335 86.46778 7.95167 0.29176 -26.80216 133.1804 81.65502 6.43428 -76.69584 -3.32491 3.82989 28.52528 0.28609 20.0471 -48.88057 2.68197 -3.44018 -6.01906 13.20204 7.26858 36.93773 -38.83075 7.41199 4.96234 7.1981
-1.23089 0.50622 -0.68267 118.60641 0 4.97022 -58.06927 -1.72795 29.47934 -66.57762 38.96091 -55.21188 130.80411 16.21469 55.63407 29.80656 86.38624 8.15548 0.06507 -26.86028 133.62649 82.97443 6.49991 -76.77238 -3.33781 3.94749 28.45488 0.09808 19.61302 -48.75094 2.71861 -3.43385 -5.94476 13.41188 7.16795 36.30927 -38.91074 7.39193 5.06695 7.51958
-1.23148 0.50632 -0.68234 118.96268 0 4.86429 -58.06927 -1.36725 29.65797 -66.57759 38.96082 -55.14467 130.35299 16.2147 55.63412 30.08714 86.32164 8.29089 -0.14734 -26.86602 134.10411 84.51895 6.56071 -76.84479 -3.35334 4.07244 28.37061 -0.1077 19.14669 -48.59486 2.75667 -3.42693 -5.85936 13.6341 7.05862 35.63335 -38.97903 7.36851 5.17311 7.85464
-1.23198 0.50636 -0.68209 119.26397 0 4.78118 -58.06927 -1.23134 29.83654 -66.57757 38.96077 -55.1738 129.82191 16.2147 55.63415 30.55453 86.21814 8.5774 -0.40086 -26.97481 134.53205 85.65078 6.63717 -76.91713 -3.36329 4.19063 28.31373 -0.28989 18.72283 -48.49166 2.79629 -3.42161 -5.79254 13.8376 6.95888 35.0311 -39.06647 7.34758 5.27577 8.16709
-1.23231 0.50624 -0.68201 119.36778 0 4.752 -58.06927 -1.77519 30.01206 -66.57758 38.96081 -55.46114 129.03477 16.2147 55.63416 31.576 86.00047 9.31978 -0.77492 -27.35538 134.81512 85.59415 6.75542 -76.99585 -3.35784 4.289 28.33687 -0.39279 18.4245 -48.52769 2.83349 -3.41393 -5.75803 13.98624 6.89817 34.64441 -39.22513 7.3408 5.38007 8.44033
-1.23256 0.50607 -0.682 119.4183 0 4.74767 -58.06927 -2.54164 30.18427 -66.57761 38.96088 -55.84083 128.18128 16.2147 55.63416 32.77134 85.7469 10.20263 -1.18369 -27.84399 135.04363 85.11167 6.88769 -77.07588 -3.34673 4.37771 28.38744 -0.47012 18.17636 -48.61984 2.8724 -3.40933 -5.74805 14.11407 6.84758 34.33909 -39.40111 7.33677 5.47817 8.683
